<?xml version="1.0" encoding="utf-8"?>
<!-- Generator: Adobe Illustrator 19.2.1, SVG Export Plug-In . SVG Version: 6.00 Build 0)  -->
<svg version="1.1" xmlns="http://www.w3.org/2000/svg" xmlns:xlink="http://www.w3.org/1999/xlink" x="0px" y="0px"
	 viewBox="0 0 663.1 620" style="enable-background:new 0 0 663.1 620;" xml:space="preserve">
<style type="text/css">
	.st0{fill:url(#SVGID_1_);}
	.st1{enable-background:new    ;}
	.st2{fill-rule:evenodd;clip-rule:evenodd;fill:#21221D;}
	.st3{fill-rule:evenodd;clip-rule:evenodd;fill:#444444;}
	.st4{fill-rule:evenodd;clip-rule:evenodd;fill:#CBCBCB;}
	.st5{fill-rule:evenodd;clip-rule:evenodd;fill:#FFFFFF;}
	.st6{fill-rule:evenodd;clip-rule:evenodd;fill:#1E1E1E;}
	.st7{fill-rule:evenodd;clip-rule:evenodd;fill:#4E4E4E;}
	.st8{fill-rule:evenodd;clip-rule:evenodd;fill:#EFB085;}
	.st9{fill-rule:evenodd;clip-rule:evenodd;fill:#6D6D6D;}
	.st10{fill-rule:evenodd;clip-rule:evenodd;fill:#9BC9E1;}
	.st11{fill-rule:evenodd;clip-rule:evenodd;fill:#E6A476;}
	.st12{fill:url(#SVGID_2_);}
	.st13{fill-rule:evenodd;clip-rule:evenodd;fill:#707070;}
	.st14{fill-rule:evenodd;clip-rule:evenodd;fill:#B9B9B9;}
	.st15{fill-rule:evenodd;clip-rule:evenodd;fill:#D2FF7C;}
	.st16{fill-rule:evenodd;clip-rule:evenodd;fill:#653F02;}
	.st17{fill-rule:evenodd;clip-rule:evenodd;fill:#846535;}
	.st18{fill-rule:evenodd;clip-rule:evenodd;}
	.st19{fill-rule:evenodd;clip-rule:evenodd;fill:#F7C966;}
	.st20{fill-rule:evenodd;clip-rule:evenodd;fill:#F0BB4A;}
	.st21{opacity:0.3216;enable-background:new    ;}
	.st22{fill-rule:evenodd;clip-rule:evenodd;fill:#BA881E;}
	.st23{opacity:0.502;enable-background:new    ;}
	.st24{fill:none;stroke:#E3E3E3;stroke-miterlimit:10;}
	.st25{fill:none;stroke:#525252;stroke-miterlimit:10;}
	.st26{fill-rule:evenodd;clip-rule:evenodd;fill:#FC3657;}
	.st27{fill-rule:evenodd;clip-rule:evenodd;fill:#080808;}
	.st28{opacity:0.149;enable-background:new    ;}
</style>
<g id="Rectangle_7_xA0_Image_1_">
	<linearGradient id="SVGID_1_" gradientUnits="userSpaceOnUse" x1="332.25" y1="421.6641" x2="332.25" y2="380">
		<stop  offset="4.502771e-03" style="stop-color:#002F4D"/>
		<stop  offset="0.9992" style="stop-color:#00416A"/>
	</linearGradient>
	<rect x="218" y="380" class="st0" width="228.5" height="41.7"/>
</g>
<g id="Rounded_Rectangle_6_1_" class="st1">
	<g>
		<g id="Rounded_Rectangle_5">
			<g>
				<path class="st2" d="M464.8,488.6H197.9c-16.8,0-28.4,13.5-25.9,29.6c0,0,5.5,32,8.2,50.2c1.7,11.5,1.4,26.9,1.4,26.9
					c2.1,13.8,16,24.8,31,24.8h237.6c15,0,28.8-10.9,31-24.8c0,0,0.5-15.8,2.3-27.6c2.7-18.1,7.3-49.5,7.3-49.5
					C493.2,502,481.6,488.6,464.8,488.6z"/>
			</g>
		</g>
		<g id="Rounded_Rectangle_6">
			<g>
				<path class="st3" d="M140,380l5.6,95c0,7.5,6.1,13.6,13.6,13.6h36.7c7.5,0,13.6-6.1,13.6-13.6l-0.5-95H140z M451,380l0.5,95
					c0,7.5,6.1,13.6,13.6,13.6h36.7c7.5,0,13.6-6.1,13.6-13.6l5.6-95H451z"/>
			</g>
		</g>
	</g>
</g>
<g id="keyboard" class="st1">
	<g>
		<g id="Rounded_Rectangle_2">
			<g>
				<path class="st4" d="M424,122H219c-2.2,0-4,1.8-4,4v86c0,2.2,1.8,4,4,4h205c2.2,0,4-1.8,4-4v-86C428,123.8,426.2,122,424,122z"
					/>
			</g>
		</g>
		<g id="Rounded_Rectangle_3">
			<g>
				<path class="st5" d="M233,128h-10c-1.1,0-2,0.9-2,2v10c0,1.1,0.9,2,2,2h10c1.1,0,2-0.9,2-2v-10C235,128.9,234.1,128,233,128z
					 M250,128h-10c-1.1,0-2,0.9-2,2v10c0,1.1,0.9,2,2,2h10c1.1,0,2-0.9,2-2v-10C252,128.9,251.1,128,250,128z M267,128h-10
					c-1.1,0-2,0.9-2,2v10c0,1.1,0.9,2,2,2h10c1.1,0,2-0.9,2-2v-10C269,128.9,268.1,128,267,128z M274,142h10c1.1,0,2-0.9,2-2v-10
					c0-1.1-0.9-2-2-2h-10c-1.1,0-2,0.9-2,2v10C272,141.1,272.9,142,274,142z M291,142h10c1.1,0,2-0.9,2-2v-10c0-1.1-0.9-2-2-2h-10
					c-1.1,0-2,0.9-2,2v10C289,141.1,289.9,142,291,142z M308,142h10c1.1,0,2-0.9,2-2v-10c0-1.1-0.9-2-2-2h-10c-1.1,0-2,0.9-2,2v10
					C306,141.1,306.9,142,308,142z M325,142h10c1.1,0,2-0.9,2-2v-10c0-1.1-0.9-2-2-2h-10c-1.1,0-2,0.9-2,2v10
					C323,141.1,323.9,142,325,142z M342,142h10c1.1,0,2-0.9,2-2v-10c0-1.1-0.9-2-2-2h-10c-1.1,0-2,0.9-2,2v10
					C340,141.1,340.9,142,342,142z M369,128h-10c-1.1,0-2,0.9-2,2v10c0,1.1,0.9,2,2,2h10c1.1,0,2-0.9,2-2v-10
					C371,128.9,370.1,128,369,128z M386,128h-10c-1.1,0-2,0.9-2,2v10c0,1.1,0.9,2,2,2h10c1.1,0,2-0.9,2-2v-10
					C388,128.9,387.1,128,386,128z M420,128h-27c-1.1,0-2,0.9-2,2v10c0,1.1,0.9,2,2,2h27c1.1,0,2-0.9,2-2v-10
					C422,128.9,421.1,128,420,128z M233,145h-10c-1.1,0-2,0.9-2,2v10c0,1.1,0.9,2,2,2h10c1.1,0,2-0.9,2-2v-10
					C235,145.9,234.1,145,233,145z M250,145h-10c-1.1,0-2,0.9-2,2v10c0,1.1,0.9,2,2,2h10c1.1,0,2-0.9,2-2v-10
					C252,145.9,251.1,145,250,145z M267,145h-10c-1.1,0-2,0.9-2,2v10c0,1.1,0.9,2,2,2h10c1.1,0,2-0.9,2-2v-10
					C269,145.9,268.1,145,267,145z M274,159h10c1.1,0,2-0.9,2-2v-10c0-1.1-0.9-2-2-2h-10c-1.1,0-2,0.9-2,2v10
					C272,158.1,272.9,159,274,159z M291,159h10c1.1,0,2-0.9,2-2v-10c0-1.1-0.9-2-2-2h-10c-1.1,0-2,0.9-2,2v10
					C289,158.1,289.9,159,291,159z M308,159h10c1.1,0,2-0.9,2-2v-10c0-1.1-0.9-2-2-2h-10c-1.1,0-2,0.9-2,2v10
					C306,158.1,306.9,159,308,159z M325,159h10c1.1,0,2-0.9,2-2v-10c0-1.1-0.9-2-2-2h-10c-1.1,0-2,0.9-2,2v10
					C323,158.1,323.9,159,325,159z M342,159h10c1.1,0,2-0.9,2-2v-10c0-1.1-0.9-2-2-2h-10c-1.1,0-2,0.9-2,2v10
					C340,158.1,340.9,159,342,159z M369,145h-10c-1.1,0-2,0.9-2,2v10c0,1.1,0.9,2,2,2h10c1.1,0,2-0.9,2-2v-10
					C371,145.9,370.1,145,369,145z M386,145h-10c-1.1,0-2,0.9-2,2v10c0,1.1,0.9,2,2,2h10c1.1,0,2-0.9,2-2v-10
					C388,145.9,387.1,145,386,145z M420,145h-10c-0.4,0-0.7,0.1-1,0.3c-0.3-0.2-0.6-0.3-1-0.3h-15c-1.1,0-2,0.9-2,2v10
					c0,1.1,0.9,2,2,2h15v5v2v8c0,1.1,0.9,2,2,2h10c1.1,0,2-0.9,2-2v-8v-2v-17C422,145.9,421.1,145,420,145z M233,162h-10
					c-1.1,0-2,0.9-2,2v10c0,1.1,0.9,2,2,2h10c1.1,0,2-0.9,2-2v-10C235,162.9,234.1,162,233,162z M250,162h-10c-1.1,0-2,0.9-2,2v10
					c0,1.1,0.9,2,2,2h10c1.1,0,2-0.9,2-2v-10C252,162.9,251.1,162,250,162z M267,162h-10c-1.1,0-2,0.9-2,2v10c0,1.1,0.9,2,2,2h10
					c1.1,0,2-0.9,2-2v-10C269,162.9,268.1,162,267,162z M274,176h10c1.1,0,2-0.9,2-2v-10c0-1.1-0.9-2-2-2h-10c-1.1,0-2,0.9-2,2v10
					C272,175.1,272.9,176,274,176z M291,176h10c1.1,0,2-0.9,2-2v-10c0-1.1-0.9-2-2-2h-10c-1.1,0-2,0.9-2,2v10
					C289,175.1,289.9,176,291,176z M308,176h10c1.1,0,2-0.9,2-2v-10c0-1.1-0.9-2-2-2h-10c-1.1,0-2,0.9-2,2v10
					C306,175.1,306.9,176,308,176z M325,176h10c1.1,0,2-0.9,2-2v-10c0-1.1-0.9-2-2-2h-10c-1.1,0-2,0.9-2,2v10
					C323,175.1,323.9,176,325,176z M342,176h10c1.1,0,2-0.9,2-2v-10c0-1.1-0.9-2-2-2h-10c-1.1,0-2,0.9-2,2v10
					C340,175.1,340.9,176,342,176z M369,162h-10c-1.1,0-2,0.9-2,2v10c0,1.1,0.9,2,2,2h10c1.1,0,2-0.9,2-2v-10
					C371,162.9,370.1,162,369,162z M386,162h-10c-1.1,0-2,0.9-2,2v10c0,1.1,0.9,2,2,2h10c1.1,0,2-0.9,2-2v-10
					C388,162.9,387.1,162,386,162z M403,162h-10c-1.1,0-2,0.9-2,2v10c0,1.1,0.9,2,2,2h10c1.1,0,2-0.9,2-2v-10
					C405,162.9,404.1,162,403,162z M233,179h-10c-1.1,0-2,0.9-2,2v10c0,1.1,0.9,2,2,2h10c1.1,0,2-0.9,2-2v-10
					C235,179.9,234.1,179,233,179z M250,179h-10c-1.1,0-2,0.9-2,2v10c0,1.1,0.9,2,2,2h10c1.1,0,2-0.9,2-2v-10
					C252,179.9,251.1,179,250,179z M267,179h-10c-1.1,0-2,0.9-2,2v10c0,1.1,0.9,2,2,2h10c1.1,0,2-0.9,2-2v-10
					C269,179.9,268.1,179,267,179z M274,193h10c1.1,0,2-0.9,2-2v-10c0-1.1-0.9-2-2-2h-10c-1.1,0-2,0.9-2,2v10
					C272,192.1,272.9,193,274,193z M291,193h10c1.1,0,2-0.9,2-2v-10c0-1.1-0.9-2-2-2h-10c-1.1,0-2,0.9-2,2v10
					C289,192.1,289.9,193,291,193z M308,193h10c1.1,0,2-0.9,2-2v-10c0-1.1-0.9-2-2-2h-10c-1.1,0-2,0.9-2,2v10
					C306,192.1,306.9,193,308,193z M325,193h10c1.1,0,2-0.9,2-2v-10c0-1.1-0.9-2-2-2h-10c-1.1,0-2,0.9-2,2v10
					C323,192.1,323.9,193,325,193z M342,193h10c1.1,0,2-0.9,2-2v-10c0-1.1-0.9-2-2-2h-10c-1.1,0-2,0.9-2,2v10
					C340,192.1,340.9,193,342,193z M369,179h-10c-1.1,0-2,0.9-2,2v10c0,1.1,0.9,2,2,2h10c1.1,0,2-0.9,2-2v-10
					C371,179.9,370.1,179,369,179z M386,179h-10c-1.1,0-2,0.9-2,2v10c0,1.1,0.9,2,2,2h10c1.1,0,2-0.9,2-2v-10
					C388,179.9,387.1,179,386,179z M403,179h-10c-1.1,0-2,0.9-2,2v10c0,1.1,0.9,2,2,2h10c1.1,0,2-0.9,2-2v-10
					C405,179.9,404.1,179,403,179z M420,179h-10c-1.1,0-2,0.9-2,2v10c0,1.1,0.9,2,2,2h10c1.1,0,2-0.9,2-2v-10
					C422,179.9,421.1,179,420,179z M233,196h-10c-1.1,0-2,0.9-2,2v10c0,1.1,0.9,2,2,2h10c1.1,0,2-0.9,2-2v-10
					C235,196.9,234.1,196,233,196z M250,196h-10c-1.1,0-2,0.9-2,2v10c0,1.1,0.9,2,2,2h10c1.1,0,2-0.9,2-2v-10
					C252,196.9,251.1,196,250,196z M267,196h-10c-1.1,0-2,0.9-2,2v10c0,1.1,0.9,2,2,2h10c1.1,0,2-0.9,2-2v-10
					C269,196.9,268.1,196,267,196z M369,196h-95c-1.1,0-2,0.9-2,2v10c0,1.1,0.9,2,2,2h95c1.1,0,2-0.9,2-2v-10
					C371,196.9,370.1,196,369,196z M386,196h-10c-1.1,0-2,0.9-2,2v10c0,1.1,0.9,2,2,2h10c1.1,0,2-0.9,2-2v-10
					C388,196.9,387.1,196,386,196z M403,196h-10c-1.1,0-2,0.9-2,2v10c0,1.1,0.9,2,2,2h10c1.1,0,2-0.9,2-2v-10
					C405,196.9,404.1,196,403,196z M420,196h-10c-1.1,0-2,0.9-2,2v10c0,1.1,0.9,2,2,2h10c1.1,0,2-0.9,2-2v-10
					C422,196.9,421.1,196,420,196z"/>
			</g>
		</g>
	</g>
</g>
<g id="tablet" class="st1">
	<g>
		<g id="Rectangle_1">
			<g>
				<path class="st3" d="M448,230H242c-5.5,0-10,4.5-10,10v112c0,5.5,4.5,10,10,10h206c5.5,0,10-4.5,10-10V240
					C458,234.5,453.5,230,448,230z"/>
			</g>
		</g>
		<g id="Rectangle_2">
			<g>
				<rect x="278" y="245" class="st6" width="163" height="101"/>
			</g>
		</g>
		<g id="Ellipse_1_copy">
			<g>
				<circle class="st7" cx="255.5" cy="296.5" r="10.5"/>
			</g>
		</g>
		<g id="Ellipse_1">
			<g>
				<circle class="st6" cx="255.5" cy="296.5" r="4.5"/>
			</g>
		</g>
		<g id="Rectangle_3">
			<g>
				<path class="st6" d="M259,269.6h-6c-1.7,0-3,1.3-3,3v1.4c0,1.7,1.3,3,3,3h6c1.7,0,3-1.3,3-3v-1.4
					C262,270.9,260.7,269.6,259,269.6z M259,258h-6c-1.7,0-3,1.3-3,3v1.4c0,1.7,1.3,3,3,3h6c1.7,0,3-1.3,3-3V261
					C262,259.3,260.7,258,259,258z M259,246h-6c-1.7,0-3,1.3-3,3v1.4c0,1.7,1.3,3,3,3h6c1.7,0,3-1.3,3-3V249
					C262,247.3,260.7,246,259,246z"/>
			</g>
		</g>
		<g id="Rectangle_3_copy">
			<g>
				<path class="st6" d="M259,338.6h-6c-1.7,0-3,1.3-3,3v1.4c0,1.7,1.3,3,3,3h6c1.7,0,3-1.3,3-3v-1.4
					C262,339.9,260.7,338.6,259,338.6z M259,327h-6c-1.7,0-3,1.3-3,3v1.4c0,1.7,1.3,3,3,3h6c1.7,0,3-1.3,3-3V330
					C262,328.3,260.7,327,259,327z M259,315h-6c-1.7,0-3,1.3-3,3v1.4c0,1.7,1.3,3,3,3h6c1.7,0,3-1.3,3-3V318
					C262,316.3,260.7,315,259,315z"/>
			</g>
		</g>
	</g>
</g>
<g id="Shape_5_1_" class="st1">
	<g id="Shape_5">
		<g>
			<path class="st8" d="M295.5,206.5c-3,1.1-7.8,4.6-7.8,4.6l-7.5,1.4l-3.6-2.6l7.7-15.7l10.8-16.4c0,0,6.8-6.4,4.5-8.8
				c-2.4-2.4-6.4,0.1-6.4,0.1s-6.7,7.7-13,16.1C273.2,194.3,269,200,269,200l8.4-18.4l7.9-17.8c0,0,1.3-4.2-1.3-5.5
				c-2.7-1.3-5.7,2.4-5.7,2.4l-10.1,18.6c0,0-6.1,11.7-9.2,16.8c2.4-7.4,7.3-32.9,7.3-32.9s-1.3-3.1-2.7-3.5
				c-1.3-0.5-4.1,2.1-4.6,2.5c-3.3,2.8-8.3,29.2-11,33.9c0.3-5.5-0.9-0.2-0.7-5c0.3-6.3,3.5-17,2.6-17.6c-0.4-0.2,0.6-2.6-1.9-3.6
				c-2.5-1-4.2,1.6-4.2,1.6s-1.7,7.3-4,13.1c-3.5,8.7-3.8,14.9-6.8,22.4c-2.1,5.4,0.5,10.8-0.7,14.5c-3,8.8-14.3,30.5-14.3,30.5
				l28.2,20c0,0,3.5-12.3,8.8-24c2.3-5.1,6.3-14.1,12-18.1c5.8-4.1,9.5-5.3,9.5-5.3l13.6-5c0,0,9.2-8.3,9.1-11.8
				C299.1,206.7,296.9,206,295.5,206.5z"/>
		</g>
	</g>
</g>
<g id="Shape_5_copy_1_" class="st1">
	<g id="Shape_5_copy">
		<g>
			<path class="st8" d="M373,275c0,0-4.2-18.2-6.8-20.4c-2.6-2.2-15.7-0.1-15.7-0.1l-1.4,5.9l-8.4-2.1l-2.1-2.1c0,0-3.1-3.5-7.3-3.2
				c-4.2,0.4-8.4,16.9-8.4,16.9l7.4,8.4c0,0-7.4-5.9-8.4,1.2c-0.6,3.8,8.2,12.8,8.2,12.8l18.1,1.4c0,0,2.1,1.9,9.1,4.8
				c6.8,2.9,13.3,11.5,13.3,11.5l23.3-23L373,275z"/>
		</g>
	</g>
</g>
<g id="Ellipse_9_1_" class="st1">
	<g>
		<g id="Rounded_Rectangle_7">
			<g>
				<path class="st9" d="M350.9,254c-2.9-2.4-6.3,0-6.7,0.5L330,277.6c-0.2,0.3,0.8,1.4,2.3,2.4l0.9,0.6c1.5,1,2.9,1.6,3.1,1.2
					l15.8-22C353.2,258.6,353.8,256.4,350.9,254z"/>
			</g>
		</g>
		<g id="Ellipse_9">
			<g>
				<ellipse class="st3" cx="348.5" cy="257" rx="3.5" ry="3"/>
			</g>
		</g>
	</g>
</g>
<g id="Shape_3_copy_1_" class="st1">
	<g>
		<g id="Ellipse_7">
			<g>
				<path class="st10" d="M331.2,407.2c-75.2,0-139.2,21.5-163.9,51.8c-7,8.6-10.8,17.8-10.8,27.5c0,43.8,78.2,79.3,174.7,79.3
					s174.7-35.5,174.7-79.3C505.8,442.7,427.6,407.2,331.2,407.2z"/>
			</g>
		</g>
		<g id="Shape_3">
			<g>
				<path class="st10" d="M243,295c9.2-28.8,16-52,16-52l-32.2-13c0,0-12.6,19.7-25.9,44.6c-14.1,26.3-37.2,80.7-38.9,92.4
					c-1.6,11.8-6,100.4-4.9,126.3c1.1,25.7,27.3,33.2,38.2,33.1c13.2-0.1,9-20.3,9-20.3s37.9-72.8,27.2-88.4
					c-10.8-15.6-9.8-48.4-5.3-66.3C228,343.8,236.1,316.6,243,295z"/>
			</g>
		</g>
		<g id="Shape_3_copy">
			<g>
				<path class="st10" d="M498.5,354c-1.2-12.8-43-35.2-67-50.4C407.7,288.5,385,280,385,280l-20,24c0,0,14.8,17.5,37,38
					c14.7,13.6,40,31,40,31s-12.5,46.5-11.3,44.8c-10.8,15.6,27.2,88.4,27.2,88.4s-4.1,20.2,9,20.3c10.9,0.1,37-7.8,38.1-33.4
					C506.1,466,499.7,366.8,498.5,354z"/>
			</g>
		</g>
	</g>
</g>
<g id="Ellipse_6_1_" class="st1">
	<g id="Ellipse_6">
		<g>
			<ellipse class="st8" cx="332.5" cy="513.6" rx="71.4" ry="96.9"/>
		</g>
	</g>
</g>
<g id="Rectangle_8_1_" class="st1">
	<g id="Rectangle_8">
		<g>
			<path class="st8" d="M331.2,401.8c-4.6,0-12.9,17.6-12.9,17.6h25.8C344.1,419.4,335.8,401.8,331.2,401.8z"/>
		</g>
	</g>
</g>
<g id="Rectangle_8_copy_1_" class="st1">
	<g id="Rectangle_8_copy">
		<g>
			<path class="st11" d="M321.7,412.7c-1.2,0-3.4,6.8-3.4,6.8h6.8C325.1,419.4,322.9,412.7,321.7,412.7z M340.7,412.7
				c-1.2,0-3.4,6.8-3.4,6.8h6.8C344.1,419.4,341.9,412.7,340.7,412.7z"/>
		</g>
	</g>
</g>
<g id="Ellipse_8_1_" class="st1">
	<g id="Ellipse_8">
		<g>
			<path class="st8" d="M263.2,512.9c-2.5,0-5.1,5-6,12.9c-1,9,0.6,22.2,5.2,22.3c4.5,0.1,6.8-13.2,6.2-22.2
				C268.1,518,265.7,513,263.2,512.9z M407.7,525.9c-0.9-7.9-3.6-12.9-6.2-12.9c-2.6,0-5,5.1-5.6,13c-0.7,9.1,1.7,22.3,6.4,22.2
				C407,548.1,408.8,534.9,407.7,525.9z"/>
		</g>
	</g>
</g>
<g id="Computer" class="st1">
	<g>
		<linearGradient id="SVGID_2_" gradientUnits="userSpaceOnUse" x1="332.2917" y1="-1.283297e-09" x2="332.2917" y2="101.1667">
			<stop  offset="6.925416e-02" style="stop-color:#E4E4E4"/>
			<stop  offset="0.1714" style="stop-color:#C2C2C2"/>
		</linearGradient>
		<path class="st12" d="M370.9,101.2h-77.2c-6.6,0-12-5.4-12-12l10-77.2c0-6.6,5.4-12,12-12h57.2c6.6,0,12,5.4,12,12l10,77.2
			C382.9,95.8,377.5,101.2,370.9,101.2z"/>
		<g>
			<g id="Rectangle_5_copy">
				<g>
					<rect x="58.3" y="63.5" class="st13" width="548" height="5.5"/>
				</g>
			</g>
			<g id="Shape_1">
				<g>
					<path class="st4" d="M332.3,23c-148.1,0-274,37.2-274,37.2v4.4h548v-4.4C606.3,60.2,480.4,23,332.3,23z"/>
				</g>
			</g>
			<g id="Rectangle_5">
				<g>
					<rect x="58.3" y="60.2" class="st14" width="548" height="5.5"/>
				</g>
			</g>
		</g>
	</g>
	<g>
		<circle class="st15" cx="132.9" cy="121.5" r="28.5"/>
		<circle class="st16" cx="132.9" cy="121.5" r="23"/>
		<path class="st15" d="M168.3,146.2l-12.4-6.4c-1.2-0.6-1.7-2.1-1.1-3.4l2.6-5.1c0.6-1.2,2.1-1.7,3.4-1.1l12.4,6.4
			c1.2,0.6,1.7,2.1,1.1,3.4l-2.6,5.1C171,146.4,169.5,146.9,168.3,146.2z"/>
		<g>
			<path class="st17" d="M145.9,116.9c0.8-0.8,1.3-1.9,1.3-3.2c0-2.6-2.1-4.7-4.7-4.7s-4.7,2.1-4.7,4.7c0,2.1,1.4,3.8,3.2,4.4
				c-1.3,1.1-2.1,2.7-2.1,4.6c0,3.3,2.7,5.9,5.9,5.9c3.3,0,5.9-2.7,5.9-5.9C150.7,119.8,148.6,117.4,145.9,116.9z"/>
			<circle class="st17" cx="137.7" cy="131.6" r="2.6"/>
		</g>
	</g>
</g>
<g id="pen_holder" class="st1">
	<g>
		<g id="Ellipse_2">
			<g>
				<circle class="st3" cx="493" cy="189" r="13"/>
			</g>
		</g>
		<g id="Ellipse_2_copy">
			<g>
				<circle class="st18" cx="493" cy="189" r="6"/>
			</g>
		</g>
	</g>
</g>
<g id="Ellipse_6_copy_1_" class="st1">
	<g id="Ellipse_6_copy">
		<g>
			<path class="st19" d="M402.5,480.4c-7.3-23.8-61.2-52.9-61.2-52.9l4.1,10.8l-25.8-13.6l4.1,12.2l-27.2-10.8c0,0,1,22.4-5.2,24.8
				c-10.1,3.9-22,9.4-24.7,15.8c-5.7,14-5.4,29.6-5.4,46.8c0,53.5,32,96.9,71.4,96.9s71.4-43.4,71.4-96.9
				C403.9,501.9,405.7,490.7,402.5,480.4z"/>
		</g>
	</g>
</g>
<g id="Shape_4_1_" class="st1">
	<g id="Shape_4">
		<g>
			<path class="st20" d="M360,443c0,0,6.4,12.2,6,19c-6.4-11.5-35-25-35-25s3.3,3.3,13.4,14.9c1,1,1.9,2,2.6,3.1
				c-0.9-1.1-1.8-2.1-2.6-3.1C330.1,438.3,288,431,288,431c0,0.5,11.6,10.7,16.7,20.9c6.6,13.1-9.2,12.5-12.7,42.1
				c-14.6-14.6-18-27-18-27s-13,27.6-13,41s6.6,102,69,102s72.4-69.9,74-103S360,443,360,443z"/>
		</g>
	</g>
</g>
<g id="Shape_6_copy_2_1_" class="st21">
	<g id="Shape_6_copy_2">
		<g>
			<path class="st22" d="M313.1,548.2c-14.7-97-9.1-26.2-18.1-59.2c-1.8,28.5-10.6,5.7-11,16c-2.2-14.2-6.9-13.9-12-28
				c0.3,19.3,0.5,56.6-5.1,16.1c-0.3,23.3-15.2,50,14.9,90.2c19.8,26.5,28.4,25.9,51.2,24C316.8,566.3,335.6,467.5,313.1,548.2z"/>
		</g>
	</g>
</g>
<g id="Shape_6_1_" class="st23">
	<g id="Shape_6">
		<g>
			<path class="st19" d="M325.6,459.2c-0.5-0.5-1-0.9-1.5-1.3C324.6,458.3,325.1,458.7,325.6,459.2z M391,479
				c10.2,49.8-6.3,66.3-7,63.6c-0.7-2.8,0.2-47.6-16.2-73.3c6.6,19.8,4,24.6,6.6,52.4c0.1,0.9,0.2,1.6,0.2,2.3
				c-0.1-0.8-0.1-1.5-0.2-2.3c-1.7-12.4-12.7-43.6-25.6-62.1c6.5,10.8,20.9,52.4,13.5,80.9c-2.6-17.8-8.2-61.3-24.2-77.9
				c9.9,11.2,16.8,39.6,11,78.3c-5.7-26.3-5.2-64.7-23.6-81.5c13.2,13.1,15.8,59.9,16.1,73.8c0.3,18-7.6,55.4,0.4,60.1
				c8,4.7,19.3,18.5,39-8C411,544.8,403.2,496.1,391,479z"/>
		</g>
	</g>
</g>
<g id="Rectangle_11_1_" class="st1">
	<g>
		<g>
			<path class="st5" d="M632.7,266.8l-67.1-15.9c-2.4-0.6-3.8-3-3.3-5.3l25-105c0.6-2.4,3-3.8,5.3-3.3l67.1,15.9
				c2.4,0.6,3.8,3,3.3,5.3l-25,105C637.5,265.9,635.1,267.4,632.7,266.8z"/>
			<g>
				<line class="st24" x1="586.1" y1="145.3" x2="661.8" y2="163.3"/>
				<line class="st24" x1="583.9" y1="154.8" x2="659.6" y2="172.8"/>
				<line class="st24" x1="581.6" y1="164.3" x2="657.3" y2="182.3"/>
				<line class="st24" x1="579.4" y1="173.8" x2="655.1" y2="191.8"/>
				<line class="st24" x1="577.1" y1="183.3" x2="652.8" y2="201.2"/>
				<line class="st24" x1="574.9" y1="192.8" x2="650.6" y2="210.7"/>
				<line class="st24" x1="572.6" y1="202.2" x2="648.3" y2="220.2"/>
				<line class="st24" x1="570.4" y1="211.7" x2="646.1" y2="229.7"/>
				<line class="st24" x1="568.1" y1="221.2" x2="643.8" y2="239.2"/>
				<line class="st24" x1="565.9" y1="230.7" x2="641.5" y2="248.7"/>
				<line class="st24" x1="563.6" y1="240.2" x2="639.3" y2="258.2"/>
			</g>
			<g>
				<line class="st25" x1="585.4" y1="140.1" x2="589.2" y2="141"/>
				<line class="st25" x1="583.1" y1="149.6" x2="586.9" y2="150.5"/>
				<line class="st25" x1="580.9" y1="159.1" x2="584.7" y2="160"/>
				<line class="st25" x1="578.6" y1="168.6" x2="582.4" y2="169.5"/>
				<line class="st25" x1="576.4" y1="178.1" x2="580.2" y2="179"/>
				<line class="st25" x1="574.1" y1="187.6" x2="577.9" y2="188.5"/>
				<line class="st25" x1="571.8" y1="197" x2="575.6" y2="198"/>
				<line class="st25" x1="569.6" y1="206.5" x2="573.4" y2="207.4"/>
				<line class="st25" x1="567.3" y1="216" x2="571.1" y2="216.9"/>
				<line class="st25" x1="565.1" y1="225.5" x2="568.9" y2="226.4"/>
				<line class="st25" x1="562.8" y1="235" x2="566.6" y2="235.9"/>
				<line class="st25" x1="560.6" y1="244.5" x2="564.4" y2="245.4"/>
			</g>
		</g>
		<g>
			<g id="Rectangle_10">
				<g>
					<polygon class="st26" points="653,210.2 589.7,263.9 592.9,267.7 656.2,214 662,205 					"/>
				</g>
			</g>
			<g id="Rectangle_11">
				<g>
					<polygon class="st27" points="590.9,263.1 588.1,265.4 591.3,268.9 594,266.7 					"/>
				</g>
			</g>
		</g>
	</g>
</g>
<g id="Shape_3_copy_2_1_" class="st28">
	<g>
		<g id="Shape_3_copy_3">
			<g>
				<path class="st5" d="M498.5,354c-1.2-12.8-43-35.2-67-50.4C407.7,288.5,385,280,385,280l-6,8c0,0,33.8,15.5,56,36
					c14.7,13.6,42,22.1,47,38s-7.2,81.7-6,80c-3.3,27.4-3.3,53.6-26,72s-38.2,38.9-25,39c10.9,0.1,78.9-34.3,80-60
					C506.1,466,499.7,366.8,498.5,354z"/>
			</g>
		</g>
		<g id="Shape_3_copy_2">
			<g>
				<path class="st5" d="M243,295c9.2-28.8,16-52,16-52l-14-5c0,0-7.7,47.1-21,72c-14.1,26.3-21.2,85.2-22,97
					c-1.6,24.2-5.5,47.3,6,44s34.2-17.6,23.4-33.2c-10.8-15.6-9.8-48.4-5.3-66.3C228,343.8,236.1,316.6,243,295z"/>
			</g>
		</g>
	</g>
</g>
</svg>
